<svg xmlns="http://www.w3.org/2000/svg" width="900" height="390" viewBox="0 0 900 390" role="img" aria-label="Forced-flow lane OOS return comparison">
  <rect width="900" height="390" fill="#ffffff"/>
  <text x="30" y="34" font-family="Arial, sans-serif" font-size="20" font-weight="700">Liquidation/forced-flow lane: prior OOS evidence vs current champion</text>
  <text x="30" y="58" font-family="Arial, sans-serif" font-size="12" fill="#555">Positive bars are locked-OOS report/gate evidence only; train/validation selection remains required.</text>
  <line x1="280" y1="320" x2="840" y2="320" stroke="#333"/>
  <line x1="280" y1="90" x2="280" y2="320" stroke="#333"/>
  <text x="235" y="324" font-family="Arial, sans-serif" font-size="11" text-anchor="end">0%</text>
  <line x1="280" y1="84" x2="280" y2="326" stroke="#999" stroke-dasharray="3,3"/>
  <text x="30" y="105" font-family="Arial, sans-serif" font-size="12">Current champion</text>
  <rect x="280" y="88" width="390" height="20" fill="#1f78b4"/>
  <text x="680" y="103" font-family="Arial, sans-serif" font-size="12">+1.2181%</text>
  <text x="30" y="145" font-family="Arial, sans-serif" font-size="12">Raw taker-flow screen top row</text>
  <rect x="280" y="128" width="350" height="20" fill="#a6cee3"/>
  <text x="640" y="143" font-family="Arial, sans-serif" font-size="12">+1.0923% (not live-equivalent)</text>
  <text x="30" y="185" font-family="Arial, sans-serif" font-size="12">ETH shock taker-flow guard</text>
  <rect x="280" y="168" width="188" height="20" fill="#b2df8a"/>
  <text x="478" y="183" font-family="Arial, sans-serif" font-size="12">+0.5871%</text>
  <text x="30" y="225" font-family="Arial, sans-serif" font-size="12">ETH shock filter replay best row</text>
  <rect x="280" y="208" width="139" height="20" fill="#33a02c"/>
  <text x="429" y="223" font-family="Arial, sans-serif" font-size="12">+0.4329%</text>
  <text x="30" y="265" font-family="Arial, sans-serif" font-size="12">Derivatives sparse taker-flow</text>
  <rect x="280" y="248" width="8" height="20" fill="#fdbf6f"/>
  <text x="298" y="263" font-family="Arial, sans-serif" font-size="12">+0.0247%</text>
  <text x="30" y="305" font-family="Arial, sans-serif" font-size="12">Taker-flow exhaustion full modes</text>
  <rect x="240" y="288" width="40" height="20" fill="#e31a1c"/>
  <text x="290" y="303" font-family="Arial, sans-serif" font-size="12">best 0.0000%; other variants negative</text>
  <text x="30" y="354" font-family="Arial, sans-serif" font-size="11" fill="#555">Scaled approximately to champion OOS return. Direct liquidation alpha is absent because liquidation feature rows are zero.</text>
</svg>
