<svg xmlns="http://www.w3.org/2000/svg" width="760" height="300" viewBox="0 0 760 300">
<rect width="100%" height="100%" fill="white"/>
<text x="55" y="28" font-family="sans-serif" font-size="16" font-weight="700">OOS return mean by volatility/calendar family</text>
<line x1="55" y1="185" x2="705" y2="185" stroke="#555" stroke-width="1"/>
<text x="10" y="189" font-family="sans-serif" font-size="11">0%</text>
<rect x="135" y="185" width="90" height="73.57296819393532" fill="#d95f02" opacity="0.85"/>
<line x1="180" y1="274.21317391733066" x2="180" y2="242.93276247053996" stroke="#222" stroke-width="2"/>
<line x1="172" y1="274.21317391733066" x2="188" y2="274.21317391733066" stroke="#222"/>
<line x1="172" y1="242.93276247053996" x2="188" y2="242.93276247053996" stroke="#222"/>
<text x="115" y="225" font-family="sans-serif" font-size="12">comp_breakout</text>
<text x="127" y="243" font-family="sans-serif" font-size="11">n=27, pass=0</text>
<text x="130" y="262" font-family="sans-serif" font-size="11">mean -0.1533%</text>
<rect x="340" y="185" width="90" height="75.95355312917881" fill="#d95f02" opacity="0.85"/>
<line x1="385" y1="273.62187155111087" x2="385" y2="248.2852347072468" stroke="#222" stroke-width="2"/>
<line x1="377" y1="273.62187155111087" x2="393" y2="273.62187155111087" stroke="#222"/>
<line x1="377" y1="248.2852347072468" x2="393" y2="248.2852347072468" stroke="#222"/>
<text x="320" y="225" font-family="sans-serif" font-size="12">comp_breakout_fade</text>
<text x="332" y="243" font-family="sans-serif" font-size="11">n=108, pass=0</text>
<text x="335" y="262" font-family="sans-serif" font-size="11">mean -0.1582%</text>
<rect x="545" y="100.18037576282775" width="90" height="84.81962423717225" fill="#2a9d8f" opacity="0.85"/>
<line x1="590" y1="110.21088537509735" x2="590" y2="90.14986615055817" stroke="#222" stroke-width="2"/>
<line x1="582" y1="110.21088537509735" x2="598" y2="110.21088537509735" stroke="#222"/>
<line x1="582" y1="90.14986615055817" x2="598" y2="90.14986615055817" stroke="#222"/>
<text x="525" y="225" font-family="sans-serif" font-size="12">calendar_rot</text>
<text x="537" y="243" font-family="sans-serif" font-size="11">n=4392, pass=300</text>
<text x="540" y="262" font-family="sans-serif" font-size="11">mean 0.1767%</text>
<text x="55" y="292" font-family="sans-serif" font-size="11" fill="#555">Error bars: approximate 95% CI across replay specs from var/reports/profit_moonshot_20260501/current_tail_20260508/all_family_expansion/fresh_start_overhaul_replay_candidates.csv</text>
</svg>
