<svg xmlns="http://www.w3.org/2000/svg" width="860" height="360" viewBox="0 0 860 360" role="img" aria-label="Profit moonshot candidate search evidence">
  <rect width="860" height="360" fill="#ffffff"/>
  <text x="30" y="34" font-family="Arial, sans-serif" font-size="20" font-weight="700">Profit moonshot v2 evidence: broad searches vs promotable successes</text>
  <text x="30" y="58" font-family="Arial, sans-serif" font-size="12" fill="#555">Locked-OOS is report/gate-only; bars show train/validation-selected search surfaces from committed artifacts.</text>
  <line x1="210" y1="300" x2="820" y2="300" stroke="#333"/>
  <line x1="210" y1="90" x2="210" y2="300" stroke="#333"/>
  <text x="30" y="116" font-family="Arial, sans-serif" font-size="13">All-family replay</text>
  <rect x="210" y="98" width="520" height="22" fill="#a6cee3"/>
  <rect x="210" y="126" width="23" height="14" fill="#1f78b4"/>
  <text x="740" y="115" font-family="Arial, sans-serif" font-size="12">6,805 specs / 300 success (all calendar)</text>
  <text x="240" y="138" font-family="Arial, sans-serif" font-size="11" fill="#1f78b4">4.41%</text>
  <text x="30" y="169" font-family="Arial, sans-serif" font-size="13">New non-calendar families</text>
  <rect x="210" y="151" width="49" height="22" fill="#b2df8a"/>
  <rect x="210" y="179" width="0" height="14" fill="#33a02c"/>
  <text x="270" y="168" font-family="Arial, sans-serif" font-size="12">640 specs / 0 success</text>
  <text x="30" y="222" font-family="Arial, sans-serif" font-size="13">H1/H2 portfolio follow-up</text>
  <rect x="210" y="204" width="520" height="22" fill="#fdbf6f"/>
  <rect x="210" y="232" width="0" height="14" fill="#ff7f00"/>
  <text x="740" y="221" font-family="Arial, sans-serif" font-size="12">20,145 specs / 0 improved</text>
  <text x="30" y="275" font-family="Arial, sans-serif" font-size="13">H3/H4/H5 portfolio follow-up</text>
  <rect x="210" y="257" width="520" height="22" fill="#cab2d6"/>
  <rect x="210" y="285" width="0" height="14" fill="#6a3d9a"/>
  <text x="740" y="274" font-family="Arial, sans-serif" font-size="12">20,145 specs / 0 improved</text>
  <text x="210" y="326" font-family="Arial, sans-serif" font-size="11" fill="#555">Long bars: evaluated specs scaled within each section; dark bars: promotable successes/improvements.</text>
</svg>
