<svg xmlns="http://www.w3.org/2000/svg" width="1000" height="520" viewBox="0 0 1000 520">
<rect width="100%" height="100%" fill="white"/>
<text x="500.0" y="25" text-anchor="middle" font-family="sans-serif" font-size="18">Task 4 family mean returns (95% CI in report)</text>
<line x1="100" x2="960" y1="146.1" y2="146.1" stroke="black" stroke-width="1"/>
<line x1="100" x2="960" y1="52.5" y2="52.5" stroke="red" stroke-dasharray="6,4" stroke-width="1"/>
<text x="105" y="47.5" font-family="sans-serif" font-size="12" fill="red">champion OOS +1.2181%</text>
<line x1="95" x2="100" y1="223.0" y2="223.0" stroke="black"/>
<text x="90" y="227.0" text-anchor="end" font-family="sans-serif" font-size="11">-1.0%</text>
<line x1="95" x2="100" y1="184.6" y2="184.6" stroke="black"/>
<text x="90" y="188.6" text-anchor="end" font-family="sans-serif" font-size="11">-0.5%</text>
<line x1="95" x2="100" y1="146.1" y2="146.1" stroke="black"/>
<text x="90" y="150.1" text-anchor="end" font-family="sans-serif" font-size="11">+0.0%</text>
<line x1="95" x2="100" y1="107.7" y2="107.7" stroke="black"/>
<text x="90" y="111.7" text-anchor="end" font-family="sans-serif" font-size="11">+0.5%</text>
<line x1="95" x2="100" y1="69.2" y2="69.2" stroke="black"/>
<text x="90" y="73.2" text-anchor="end" font-family="sans-serif" font-size="11">+1.0%</text>
<rect x="134.4" y="146.1" width="43.0" height="156.7" fill="#1f77b4" opacity="0.82"/>
<text x="155.9" y="315.8" text-anchor="middle" font-family="sans-serif" font-size="10">-2.04</text>
<rect x="186.0" y="146.1" width="43.0" height="25.7" fill="#ff7f0e" opacity="0.82"/>
<text x="207.5" y="184.8" text-anchor="middle" font-family="sans-serif" font-size="10">-0.33</text>
<rect x="237.6" y="146.1" width="43.0" height="23.2" fill="#2ca02c" opacity="0.82"/>
<text x="259.1" y="182.3" text-anchor="middle" font-family="sans-serif" font-size="10">-0.30</text>
<text x="207.5" y="440" text-anchor="middle" font-family="sans-serif" font-size="11" transform="rotate(-18 207.5,440)">cross_momentum</text>
<rect x="349.4" y="146.1" width="43.0" height="208.1" fill="#1f77b4" opacity="0.82"/>
<text x="370.9" y="367.2" text-anchor="middle" font-family="sans-serif" font-size="10">-2.71</text>
<rect x="401.0" y="146.1" width="43.0" height="27.6" fill="#ff7f0e" opacity="0.82"/>
<text x="422.5" y="186.7" text-anchor="middle" font-family="sans-serif" font-size="10">-0.36</text>
<rect x="452.6" y="146.1" width="43.0" height="33.5" fill="#2ca02c" opacity="0.82"/>
<text x="474.1" y="192.6" text-anchor="middle" font-family="sans-serif" font-size="10">-0.44</text>
<text x="422.5" y="440" text-anchor="middle" font-family="sans-serif" font-size="11" transform="rotate(-18 422.5,440)">cross_sectional_sharpe_rank</text>
<rect x="564.4" y="146.1" width="43.0" height="253.9" fill="#1f77b4" opacity="0.82"/>
<text x="585.9" y="413.0" text-anchor="middle" font-family="sans-serif" font-size="10">-3.30</text>
<rect x="616.0" y="146.1" width="43.0" height="41.5" fill="#ff7f0e" opacity="0.82"/>
<text x="637.5" y="200.6" text-anchor="middle" font-family="sans-serif" font-size="10">-0.54</text>
<rect x="667.6" y="146.1" width="43.0" height="39.6" fill="#2ca02c" opacity="0.82"/>
<text x="689.1" y="198.7" text-anchor="middle" font-family="sans-serif" font-size="10">-0.51</text>
<text x="637.5" y="440" text-anchor="middle" font-family="sans-serif" font-size="11" transform="rotate(-18 637.5,440)">cross_sectional_sharpe_reversal</text>
<rect x="779.4" y="122.9" width="43.0" height="23.2" fill="#1f77b4" opacity="0.82"/>
<text x="800.9" y="118.9" text-anchor="middle" font-family="sans-serif" font-size="10">+0.30</text>
<rect x="831.0" y="111.3" width="43.0" height="34.8" fill="#ff7f0e" opacity="0.82"/>
<text x="852.5" y="107.3" text-anchor="middle" font-family="sans-serif" font-size="10">+0.45</text>
<rect x="882.6" y="132.5" width="43.0" height="13.6" fill="#2ca02c" opacity="0.82"/>
<text x="904.1" y="128.5" text-anchor="middle" font-family="sans-serif" font-size="10">+0.18</text>
<text x="852.5" y="440" text-anchor="middle" font-family="sans-serif" font-size="11" transform="rotate(-18 852.5,440)">calendar_rotation</text>
<rect x="730" y="485" width="12" height="12" fill="#1f77b4" opacity="0.82"/>
<text x="748" y="495" font-family="sans-serif" font-size="12">train</text>
<rect x="810" y="485" width="12" height="12" fill="#ff7f0e" opacity="0.82"/>
<text x="828" y="495" font-family="sans-serif" font-size="12">val</text>
<rect x="890" y="485" width="12" height="12" fill="#2ca02c" opacity="0.82"/>
<text x="908" y="495" font-family="sans-serif" font-size="12">oos</text>
</svg>